<?xml version="1.0" encoding="UTF-8" standalone="no"?>
<!--
   File: f08.svg
   Description: Illustration generated with Inkscape and design from Nano Banana. This SVG is part of the media_package project.
   Author: Konrad Keck
   Date: 2026-05-15
   License: See LICENSE in project root.
   Usage: For documentation, presentation, or educational purposes within the media_package project.
   Source: Created with Inkscape (http://www.inkscape.org/)
-->

<svg
   xmlns="http://www.w3.org/2000/svg"
   xmlns:xlink="http://www.w3.org/1999/xlink"
   xmlns:inkscape="http://www.inkscape.org/namespaces/inkscape"
   xmlns:sodipodi="http://sodipodi.sourceforge.net/DTD/sodipodi-0.dtd"
   xmlns:svg="http://www.w3.org/2000/svg"
   version="1.1"
   id="svg1"
   width="310"
   height="310"
   viewBox="1 1 308 308"
   sodipodi:docname="f08.svg">
   <defs id="defs1" />
  <sodipodi:namedview
     id="namedview1"
     pagecolor="#ffffff"
     bordercolor="#000000"
     borderopacity="0.25"
     inkscape:showpageshadow="2"
     inkscape:pageopacity="0.0"
     inkscape:pagecheckerboard="0"
     inkscape:deskcolor="#d1d1d1">
    <inkscape:page
       x="0"
       y="0"
       width="310"
       height="310"
       id="page1"
       margin="0"
       bleed="0" />
  </sodipodi:namedview>
  <g
     inkscape:groupmode="layer"
     inkscape:label="Image"
     id="g1"
     transform="translate(-689.70502,-122.31101)">
    <g
       id="g2"
       transform="translate(-1044.3941,53.309159)"
       style="fill:#000000">
      <path
         style="fill:#000000;fill-opacity:1"
         d="m 1476.4848,917.0813 c -3.1431,-4.4873 -4.8378,-11.8049 -4.326,-18.6788 0.6277,-8.4298 4.1571,-16.1162 7.4,-16.1162 h 2.2445 l -2.1581,4.75 c -3.0764,6.7713 -3.0489,19.7877 0.056,26.6271 2.6762,5.8944 2.6631,5.6229 0.271,5.6229 -1.0688,0 -2.6382,-0.9923 -3.4877,-2.205 z m 178.704,-2.4813 c 3.1482,-6.836 3.1624,-20.7617 0.028,-27.5637 l -2.1888,-4.75 h 2.4991 c 2.0694,0 2.9535,0.9887 5.1415,5.75 3.5161,7.6512 3.5738,16.2942 0.1655,24.75 -2.0388,5.0579 -2.8459,6.0492 -5.1405,6.3137 l -2.7219,0.3137 z m -55.023,-3.8184 c -2.0746,-1.4833 -2.25,-2.3838 -2.25,-11.552 v -9.9433 h 3 3 v 8.893 c 0,7.2903 0.2931,9.0055 1.6267,9.5172 3.2719,1.2556 4.3733,-1.2711 4.3733,-10.0327 v -8.3775 h 3 3 v 11.0241 11.0242 l -3.75,-0.1645 c -2.0625,-0.09 -5.1,0.1472 -6.75,0.528 -2.0683,0.4773 -3.6988,0.1927 -5.25,-0.9165 z m -115.25,-13.9953 v -14.5 h 4.8347 4.8347 l 2.2734,10.1824 c 1.3729,6.1487 2.5649,9.6149 3.0091,8.75 0.4046,-0.7879 1.5383,-5.3699 2.5193,-10.1824 l 1.7837,-8.75 h 4.8726 4.8725 v 14.5 14.5 h -2.9673 -2.9672 l -0.2828,-11.25 -0.2827,-11.25 -2.301,9.5 c -3.2555,13.4413 -3.0611,13 -5.7279,13 -1.9245,0 -2.5875,-0.7356 -3.3802,-3.75 -0.5424,-2.0625 -1.8688,-7.125 -2.9476,-11.25 l -1.9613,-7.5 -0.091,11.25 -0.091,11.25 h -3 -3 z m 34,3.5 v -11 h 3 3 v 11 11 h -3 -3 z m 11,0 v -11 h 2.5 c 1.375,0 2.5,0.4658 2.5,1.0351 0,0.7136 0.6009,0.7136 1.9342,0 1.0639,-0.5693 3.2884,-1.0351 4.9433,-1.0351 4.7609,0 6.1225,2.9404 6.1225,13.2225 v 8.7775 h -2.9611 -2.9611 l -0.2889,-8.7388 c -0.2553,-7.7205 -0.5143,-8.7819 -2.2228,-9.1087 -3.1786,-0.6082 -4.5661,2.5942 -4.5661,10.5386 0,7.1294 -0.061,7.3089 -2.5,7.3089 h -2.5 z m 23,0 v -11 h 3 3 v 11 11 h -3 -3 z m 11,0 c 0,-10.174 0.1439,-11 1.9166,-11 1.0542,0 2.123,0.5625 2.375,1.25 0.3667,1 0.7234,1 1.7834,0 1.6878,-1.5924 8.1494,-1.6256 9.725,-0.05 0.9333,0.9333 1.4666,0.9333 2.4,0 0.66,-0.66 2.8941,-1.2 4.9648,-1.2 5.0339,0 5.8352,1.776 5.8352,12.9342 v 9.0658 h -2.9611 -2.9611 l -0.2889,-8.75 c -0.2836,-8.5897 -0.3347,-8.75 -2.7889,-8.75 -2.4542,0 -2.5053,0.1603 -2.789,8.75 l -0.2889,8.75 h -2.9611 -2.961 v -8.5314 c 0,-6.6929 -0.326,-8.6565 -1.5128,-9.1119 -3.2069,-1.2306 -4.4872,1.5557 -4.4872,9.7657 0,7.7361 -0.045,7.8776 -2.5,7.8776 h -2.5 z m 57,0 v -11 h 2.5 c 1.375,0 2.5,0.4658 2.5,1.0351 0,0.7136 0.6009,0.7136 1.9342,0 2.5336,-1.3559 7.3768,-1.3241 8.7584,0.058 0.7902,0.7902 1.6578,0.7902 3.1343,0 2.7052,-1.4477 7.475,-1.3907 8.9731,0.1074 0.77,0.7701 1.2,4.7111 1.2,11 0,9.7437 -0.014,9.8 -2.4596,9.8 -2.3876,0 -2.468,-0.2381 -2.75,-8.1446 -0.2347,-6.5828 -0.6372,-8.3566 -2.099,-9.25 -3.0513,-1.865 -4.6914,1.6611 -4.6914,10.0857 0,7.1294 -0.061,7.3089 -2.5,7.3089 -2.4184,0 -2.5005,-0.2204 -2.5137,-6.75 -0.017,-8.6119 -0.7368,-11.25 -3.0678,-11.25 -2.7965,0 -3.9185,3.1309 -3.9185,10.9342 0,6.8701 -0.069,7.0658 -2.5,7.0658 h -2.5 z m -102,-16.5 c 0,-2.1112 0.4666,-2.5 3,-2.5 2.5333,0 3,0.3888 3,2.5 0,2.1111 -0.4667,2.5 -3,2.5 -2.5334,0 -3,-0.3889 -3,-2.5 z m 34,-0.066 c 0,-2.2098 0.3821,-2.5225 2.75,-2.25 1.969,0.2265 2.8407,0.9554 3.0695,2.5664 0.2719,1.914 -0.1387,2.25 -2.75,2.25 -2.6287,0 -3.0695,-0.3686 -3.0695,-2.5665 z m -332,-14.1346 c 0,-0.45516 2.844,-9.59617 6.32,-20.31332 l 6.3201,-19.48573 3.1799,-0.31336 c 1.749,-0.17235 3.1735,0.0526 3.1656,0.5 -0.01,0.44735 -2.8366,9.58836 -6.2859,20.31336 l -6.2714,19.50005 -3.2142,0.3133 c -1.7678,0.1724 -3.2141,-0.059 -3.2141,-0.5143 z m 317,0.2593 c 0,-1.35413 13.0892,-40.04753 13.7814,-40.73975 0.4216,-0.42159 1.9279,-0.44075 3.3474,-0.0426 l 2.581,0.72397 -6.6451,20 -6.645,19.99998 -3.2098,0.3134 c -1.7655,0.1724 -3.2099,0.058 -3.2099,-0.255 z m -343,-20.55835 v -20 h 12 12 v 3.5 3.5 h -8.0575 -8.0575 l 0.3075,4.25 0.3075,4.25 7.25,0.29381 7.25,0.29381 v 3.45619 3.45619 h -7.5 -7.5 v 8.5 8.5 h -4 -4 z m 58,6 v -14 h -4.5 c -4.1334,0 -4.5,-0.2037 -4.5,-2.5 0,-2.02564 0.4933,-2.5 2.6,-2.5 1.6354,0 3.8915,-1.29152 6.0813,-3.48132 2.2938,-2.29381 4.2211,-3.36866 5.65,-3.15105 2.1293,0.32427 2.1736,0.68682 2.4398,19.98132 l 0.2712,19.65105 h -4.0212 -4.0211 z m 25,0 v -14 h -4.5 c -4.0671,0 -4.5,-0.22793 -4.5,-2.36916 0,-1.9482 0.6439,-2.47365 3.624,-2.95725 3.7701,-0.61181 7.376,-3.13209 7.376,-5.15538 0,-0.73321 1.1229,-1.00702 3,-0.73152 l 3,0.44031 v 19.3865 19.3865 h -4 -4 z m 234,-5.9425 v -20.0575 h 12 12 v 3.5 3.5 h -7.5 -7.5 v 4.5 4.5 h 7 7 v 3.5 3.5 h -6.9596 -6.9595 l -0.2905,8.25 -0.2904,8.25 -4.25,0.3075 -4.25,0.30755 z m 49,17.5076 c 0,-4.75224 2.1355,-8.15158 9.5221,-15.15777 6.4942,-6.1597 7.4779,-7.54745 7.4779,-10.55 0,-3.94762 -1.4672,-5.85733 -4.5,-5.85733 -2.7255,0 -4.5,1.83007 -4.5,4.64098 0,2.96841 -1.2396,3.59231 -5.5358,2.78632 -3.3851,-0.63504 -3.5357,-0.83167 -2.9091,-3.7985 0.9023,-4.27246 4.0655,-7.44957 8.6446,-8.68257 8.7977,-2.36898 16.8003,2.41468 16.8003,10.04259 0,5.56764 -1.0682,7.33347 -9.3828,15.51118 l -7.1172,7 8.25,0.29044 8.25,0.29044 v 2.95956 2.95956 h -12.5 -12.5 z m 30,-0.16397 c 0,-4.36917 2.9829,-9.21791 9.0468,-14.70539 6.4961,-5.87866 8.5062,-9.35611 7.5683,-13.09313 -1.5026,-5.98667 -8.0176,-5.30445 -9.1934,0.96268 -0.6301,3.3591 -0.8506,3.52541 -4.293,3.23785 -3.4971,-0.29215 -3.6166,-0.43006 -3.2942,-3.80314 0.4242,-4.43908 3.4701,-7.73566 8.3652,-9.05377 8.7882,-2.36643 16.8003,2.41521 16.8003,10.02651 0,5.67436 -1.8062,8.68901 -8.9058,14.86397 -8.2112,7.14194 -8.0353,8.16329 1.4058,8.16329 h 7.5 v 3 3 h -12.5 -12.5 z m -375,-61.80812 c -34.4135,-6.09564 -60.7743,-20.05697 -84.5245,-44.76632 -35.5314,-36.96631 -49.2905,-88.3208 -36.9561,-137.93498 10.0702,-40.50657 37.7211,-76.24461 73.8697,-95.47459 11.921,-6.34162 23.1308,-10.62407 36.7329,-14.03295 10.692,-2.67958 12.644,-2.85247 32.378,-2.86783 23.5482,-0.0183 28.7607,0.70852 46.5279,6.48805 51.8533,16.86751 89.5905,60.20029 100.6132,115.53189 2.212,11.10419 2.4745,39.24012 0.4708,50.46372 -10.8711,60.89235 -56.5073,108.24012 -117.1119,121.50427 -10.2208,2.23695 -41.7865,2.89785 -52,1.08874 z m 51.2603,-9.56292 c 48.5578,-10.32512 89.3007,-47.15429 104.5756,-94.53009 4.7078,-14.60151 6.4895,-26.27013 6.4896,-42.5 0,-16.9687 -1.8497,-28.83359 -6.8032,-43.63852 -18.8802,-56.4285 -68.5447,-94.49345 -126.6217,-97.04814 -36.96,-1.62579 -70.1664,10.09707 -99.0182,34.95637 -17.7585,15.30101 -33.1336,39.01202 -40.7002,62.76657 -4.998,15.69045 -6.5562,25.77036 -6.5643,42.46372 -0.012,23.88795 4.176,41.59881 14.9027,63.02748 20.6362,41.22482 61.0301,69.9242 107.6193,76.46215 10.336,1.45048 35.0146,0.40195 46.1204,-1.95954 z m -41.2603,-3.66942 c -1.375,-0.20184 -5.875,-0.8601 -10,-1.46281 -16.0718,-2.34826 -36.9948,-10.68123 -51.8371,-20.64506 -28.8591,-19.37357 -49.9902,-50.91627 -57.2909,-85.51913 -4.2715,-20.24558 -2.5486,-47.77935 4.268,-68.20579 10.6167,-31.81399 34.902,-60.857 63.86,-76.37071 19.2387,-10.30677 36.7693,-15.04899 58.5,-15.82483 24.0531,-0.85876 42.5199,3.08847 64,13.67982 32.3803,15.96601 57.4784,45.15265 68.8316,80.04442 7.4408,22.86797 7.8808,54.85426 1.073,78.00602 -16.7118,56.83301 -71.2041,97.59351 -129.4046,96.79532 -5.225,-0.0717 -10.625,-0.29542 -12,-0.49725 z m 37.3342,-7.83589 c 49.0125,-10.26333 88.448,-48.22651 99.6936,-95.97165 9.4495,-40.11944 -0.363,-80.80112 -27.2788,-113.09578 -47.7635,-57.30853 -135.0984,-60.84657 -187.5658,-7.59851 -38.5794,39.15331 -48.7545,99.34206 -24.8266,146.85646 19.1532,38.03319 54.2758,63.76981 96.6434,70.81684 10.6518,1.77173 32.4866,1.26416 43.3342,-1.00736 z m -40.0844,-4.44336 c -6.0016,-0.72814 -6.0391,-0.76693 -14.0226,-14.50681 -8.7828,-15.11566 -14.7661,-33.18305 -17.3152,-52.28551 -1.7574,-13.17032 -0.3418,-37.20186 2.7267,-46.2891 0.2786,-0.825 1.743,2.325 3.2542,7 12.8251,39.67498 47.6353,74.097 90.5635,89.55367 l 7.9563,2.86477 -7.9563,3.73728 c -18.4464,8.66465 -43.796,12.52335 -65.2066,9.9257 z m -24.033,-5.6136 c -23.9008,-8.14194 -48.0998,-26.65991 -61.7175,-47.22865 l -4.8072,-7.26083 2.2394,-8.1713 c 3.0496,-11.12762 8.7976,-24.1449 15.2177,-34.46285 6.2306,-10.01342 22.9067,-27.97932 32.6651,-35.19141 6.8845,-5.08815 20.1857,-12.81248 20.1857,-11.72235 0,0.33768 -1.748,4.09148 -3.8845,8.34177 -5.1759,10.29719 -9.6571,23.22467 -11.7694,33.95292 -2.3194,11.77974 -2.3374,36.36701 -0.036,48.99844 3.0472,16.72463 11.0038,37.9148 19.1595,51.02644 3.1227,5.02019 2.7208,5.11539 -7.2528,1.71782 z m 93.6573,-15.45061 c -32.0195,-10.66269 -61.2898,-33.71746 -77.7973,-61.27691 l -2.2519,-3.75971 7.8375,3.90941 c 10.1717,5.0737 26.9995,10.67153 38.6189,12.84676 13.8061,2.58459 39.9506,2.30473 53.4071,-0.57168 12.0308,-2.57168 25.1436,-7.05212 34.6641,-11.84426 3.7688,-1.89705 7.049,-3.2526 7.2893,-3.01233 1.3777,1.37772 -7.4944,20.46329 -14.4996,31.19151 -7.8007,11.94627 -32.9538,35.68059 -37.5637,35.44484 -0.5932,-0.0303 -4.9602,-1.34777 -9.7044,-2.92763 z m -167.8723,-55.16859 c -7.2107,-18.69805 -10.0019,-38.20064 -8.0551,-56.28238 1.3883,-12.89455 4.4907,-25.48116 6.8247,-27.6878 2.4975,-2.36132 20.3158,-9.31216 30.1896,-11.77684 23.9877,-5.98777 49.2043,-5.17468 72.4571,2.33633 3.9418,1.27325 6.4168,2.52428 5.5819,2.82147 -0.825,0.29367 -6,1.91271 -11.5,3.59788 -41.329,12.66297 -75.7033,46.1032 -89.0629,86.64272 -1.45,4.4 -2.772,8.14302 -2.9379,8.31782 -0.1658,0.17481 -1.7397,-3.41133 -3.4974,-7.9692 z m 143.4982,2.48104 c -1.65,-0.20388 -7.4163,-1.33916 -12.8139,-2.52285 l -9.8139,-2.15216 9.3139,-3.32412 c 19.7536,-7.05003 35.2413,-16.00932 50.4357,-29.17578 16.569,-14.35765 31.495,-36.41298 38.2118,-56.46373 1.6231,-4.84494 3.1728,-9.03074 3.4438,-9.30179 0.2711,-0.27104 1.8954,2.87636 3.6097,6.99422 7.7387,18.58932 11.0997,40.24253 9.1898,59.20548 -1.7573,17.44792 -0.8056,15.99082 -15.1123,23.13789 -20.1173,10.04977 -39.0003,14.38691 -61.4646,14.11745 -6.6,-0.0792 -13.35,-0.31074 -15,-0.51461 z m 12.0879,-33.77867 c 10.0948,-20.5042 13.6803,-35.92001 13.7345,-59.05099 0.054,-23.02767 -4.4959,-43.16475 -14.2336,-62.9977 -2.1597,-4.39873 -3.7544,-8.17006 -3.5437,-8.38073 0.6846,-0.68466 11.7564,4.08908 20.0839,8.65947 16.4771,9.0431 31.9779,22.88145 41.4011,36.96085 l 4.847,7.24188 -1.9828,7.15507 c -6.5622,23.68035 -16.9504,40.89036 -35.5826,58.94898 -8.0485,7.80067 -26.8955,21.91218 -29.2655,21.91218 -0.3315,0 1.7123,-4.70206 4.5417,-10.44901 z m -0.9087,-30.8711 c -3.8101,-12.39983 -13.2478,-31.22756 -21.1433,-42.17989 -8.2397,-11.42983 -22.6111,-25.84342 -33.4926,-33.59098 -7.8528,-5.59111 -24.905,-14.72663 -33.0433,-17.70263 -3.1013,-1.13407 -3.2936,-1.3992 -1.6881,-2.32746 4.1561,-2.40295 19.3948,-6.87363 28.7768,-8.44239 11.6073,-1.94088 34.9503,-1.55381 43.4113,0.71985 4.7666,1.2809 5.199,1.69363 9.2651,8.84361 11.7668,20.69157 18.1025,47.71877 16.9118,72.14333 -0.5078,10.41787 -3.8704,29.26524 -5.5372,31.03656 -0.3518,0.37393 -1.9091,-3.45107 -3.4605,-8.5 z m -23.4859,-24.73955 c -16.9185,-9.57251 -37.4144,-15.99639 -57.8266,-18.12412 -20.1639,-2.10184 -44.0523,1.46475 -63.8375,9.53108 -4.6911,1.91254 -8.5292,3.25534 -8.5292,2.984 0,-0.27134 1.6172,-3.71938 3.5939,-7.66232 10.0341,-20.01554 26.638,-38.23802 45.2746,-49.68802 l 5.3684,-3.29831 7.1316,2.28624 c 23.5968,7.56473 48.274,25.47933 64.1812,46.59284 5.6712,7.52735 14.0494,21.29035 13.2914,21.83393 -0.1876,0.13455 -4.0791,-1.87034 -8.6478,-4.45532 z m 282.4484,187.98682 c -53.5848,-9.43228 -98.4815,-48.49705 -115.5503,-100.5406 -5.7957,-17.67146 -7.467,-30.21361 -6.7809,-50.88656 0.618,-18.61975 1.9449,-26.33185 7.3126,-42.5 14.2232,-42.84286 48.4938,-77.9897 90.4964,-92.81025 17.8723,-6.30624 27.0999,-7.69384 50.8805,-7.65118 23.5199,0.0422 30.1509,1.0851 49,7.70659 51.1985,17.98556 88.989,64.55543 97.0341,119.57664 1.6176,11.06251 0.7144,41.08901 -1.5388,51.15908 -8.4343,37.69422 -30.5288,70.75538 -61.4293,91.91953 -18.0366,12.35349 -41.0679,21.58988 -61.1944,24.54111 -14.3371,2.10232 -34.5917,1.88631 -48.2299,-0.51436 z m 51.1744,-8.40752 c 27.9061,-5.44215 52.3345,-18.52006 72.75,-38.9472 20.3564,-20.36798 32.4656,-42.42676 38.7004,-70.49923 3.1951,-14.38623 3.1504,-42.47762 -0.091,-56.95371 -12.5857,-56.21182 -52.8809,-96.89047 -108.2569,-109.28712 -13.7417,-3.07625 -42.5135,-3.33252 -55.9188,-0.49808 -18.5187,3.91562 -38.2477,12.35832 -52.658,22.53402 -16.6636,11.76685 -34.7024,32.09389 -43.7817,49.33557 -38.8149,73.70941 -6.6904,163.11223 70.4397,196.03452 23.0479,9.83781 54.1027,13.10075 78.8161,8.28123 z m -38.8161,-4.14312 c -31.8229,-4.05737 -57.1713,-16.0103 -79.4414,-37.46032 -26.2114,-25.2461 -39.8529,-55.65019 -41.2404,-91.9162 -1.0986,-28.716 7.3441,-57.62669 23.8743,-81.75345 11.7184,-17.10372 34.0548,-35.94662 52.9717,-44.68675 19.7819,-9.13982 33.8035,-12.06189 57.8358,-12.05282 17.1006,0.006 19.332,0.223 29.5,2.86274 25.3848,6.59023 43.7615,16.57852 61.8738,33.63028 45.1093,42.46793 54.7739,113.50119 22.6441,166.43009 -20.0548,33.03723 -52.771,55.89261 -90.2909,63.07686 -8.2289,1.57566 -31.1309,2.71058 -37.727,1.86957 z m 36.5,-7.85384 c 26.8294,-5.58579 48.2305,-17.07206 67,-35.95971 24.4995,-24.6538 37.5,-55.86109 37.5,-90.01774 0,-60.6621 -42.5415,-113.18356 -102.1624,-126.12909 -10.1241,-2.19826 -31.5946,-2.96546 -41.9424,-1.49872 -14.4552,2.04892 -26.7632,5.81064 -39.3952,12.04046 -36.4743,17.98823 -61.5389,50.50883 -70.1687,91.04212 -2.5241,11.85526 -2.4995,37.21217 0.048,48.94742 5.7378,26.43708 17.0819,47.4827 35.6211,66.08473 19.2417,19.30678 43.9749,31.84429 72,36.49749 10.6111,1.76183 30.5216,1.27872 41.5,-1.00696 z m -39.4088,-4.56978 c -4.5818,-0.57536 -8.151,-1.60203 -9.3539,-2.69061 -3.2691,-2.9585 -11.5594,-21.26205 -13.7069,-30.26229 -6.7307,-28.20946 -1.1561,-57.78073 15.3457,-81.40337 l 4.1239,-5.90337 0.6317,2.90337 c 0.3474,1.59685 0.6849,4.62839 0.75,6.73676 0.2145,6.95261 4.144,20.00966 9.0785,30.16661 14.8889,30.64674 41.6927,51.58549 75.5304,59.00329 l 2.9906,0.6556 -3.9906,2.47446 c -12.4737,7.73457 -27.5803,13.80866 -41.9906,16.88366 -8.8577,1.89015 -29.7342,2.65079 -39.4088,1.43589 z m -28.8118,-7.85397 c -24.1699,-10.06471 -42.6662,-25.0913 -57.2566,-46.51572 -3.2385,-4.75538 -3.3092,-5.06725 -2.1541,-9.5 3.1545,-12.10587 13.5819,-29.49037 23.8438,-39.75221 15.4514,-15.45143 38.8963,-26.94308 59.0619,-28.94947 l 6.7256,-0.66917 -5.5601,5.89382 c -15.002,15.90265 -24.4194,36.95034 -27.1067,60.58304 -2.027,17.82587 2.0327,40.15139 10.1013,55.54935 2.0927,3.99379 3.3011,7.2476 2.6852,7.23069 -0.6158,-0.0169 -5.269,-1.75856 -10.3403,-3.87033 z m 108.7206,-20.11751 c -36.3352,-9.07783 -63.8748,-35.43101 -74.1087,-70.91591 -1.0206,-3.53897 -1.7451,-6.54503 -1.61,-6.68014 0.1351,-0.13511 2.6758,1.28661 5.646,3.15938 23.6786,14.92977 58.2841,18.52084 85.2238,8.84381 13.9592,-5.01432 27.1655,-12.57489 37.3272,-21.3698 2.5538,-2.21032 4.9073,-4.01876 5.23,-4.01876 1.2062,0 -0.784,16.85691 -3.1287,26.5 -5.6786,23.35506 -18.897,45.81038 -35.8893,60.96876 -6.9718,6.21942 -7.4765,6.31427 -18.6903,3.51266 z m -176.829,-47.23035 c -6.4365,-15.47216 -9.6334,-33.38691 -9.002,-50.44421 0.4568,-12.33981 -0.1339,-11.59857 15.331,-19.24124 23.4026,-11.5655 49.774,-13.84777 75.1244,-6.50152 10.1916,2.95341 25.6923,10.11446 24.8486,11.47961 -0.3251,0.52596 -3.2056,0.95629 -6.4011,0.95629 -14.259,0 -35.3599,5.99175 -48.8531,13.87218 -18.692,10.91672 -33.0452,26.2806 -42.1598,45.12852 -2.2325,4.61643 -4.059,8.95325 -4.059,9.63739 0,3.69868 -2.1715,1.5011 -4.829,-4.88702 z m 142.829,-19.82324 c -6.5352,-1.15463 -20.565,-5.42631 -23.771,-7.23761 -2.1352,-1.20635 -1.8364,-1.42091 5,-3.58959 9.0242,-2.8627 20.555,-8.52129 28.8679,-14.16642 8.1586,-5.54043 21.7413,-18.59554 27.8922,-26.80884 10.0739,-13.45184 18.5047,-33.11915 21.3145,-49.72245 l 1.3374,-7.90292 6.7303,9 c 12.4137,16.60012 20.9081,37.19587 23.6669,57.38331 l 1.2638,9.24802 -5.401,5.5143 c -6.718,6.8589 -22.1005,17.18546 -31.4969,21.14439 -12.2547,5.16322 -22.5745,7.32686 -36.9041,7.73724 -7.15,0.20476 -15.475,-0.065 -18.5,-0.59943 z m -9.5119,-27.34881 c 7.8274,-15.59619 12.5156,-34.88448 12.5079,-51.46001 -0.01,-21.45825 -7.0366,-45.51057 -18.449,-63.15243 -2.4787,-3.83162 -4.1247,-6.96658 -3.6578,-6.96658 0.4668,0 4.8452,0.68115 9.7298,1.51366 21.8795,3.72908 44.4221,14.4574 59.4892,28.31163 l 5.3318,4.90259 -1.2775,8.88606 c -2.2173,15.42414 -9.2216,33.20436 -18.4218,46.76308 -5.5249,8.14239 -16.6457,19.6217 -25.3694,26.18734 -6.2894,4.73356 -21.4859,13.43564 -23.4628,13.43564 -0.3556,0 1.2552,-3.78944 3.5796,-8.42098 z m -5.3692,-14.32902 c -2.7502,-16.76835 -11.0737,-36.86314 -21.2284,-51.25 -12.1861,-17.26481 -32.9751,-33.37472 -50.3316,-39.00318 l -3.941,-1.27801 6.7222,-3.38892 c 14.3869,-7.25294 34.595,-12.32989 49.0774,-12.32989 h 7.1556 l 3.8743,5.18947 c 16.3239,21.86525 23.8796,54.47009 19.0459,82.18837 -1.6494,9.4586 -7.1371,27.62216 -8.3453,27.62216 -0.4169,0 -1.33,-3.4875 -2.0291,-7.75 z m -10.0709,-3.35714 c -3.7386,-3.11129 -14.8208,-9.3668 -21.7347,-12.26846 -32.8196,-13.77388 -68.6507,-11.94095 -97.6339,4.99444 -4.5711,2.671 -5.7059,3.02327 -5.2866,1.6411 0.2936,-0.96797 0.9813,-3.78494 1.5282,-6.25994 5.3496,-24.2089 22.5393,-50.41765 43.6961,-66.62243 l 7.4643,-5.71716 5.7093,1.77746 c 14.6992,4.57628 34.2504,17.69105 44.2044,29.65199 10.2654,12.33514 17.7998,25.99769 22.2848,40.41014 4.6049,14.79778 4.575,16.39328 -0.2319,12.39286 z M 1144.117,480.53625 c -3.8035,-8.13587 -3.8035,-18.36413 0,-26.5 1.993,-4.263 3.2197,-5.75 4.7435,-5.75 1.1304,0 2.0551,0.1125 2.0548,0.25 -3e-4,0.1375 -0.9003,2.61733 -2,5.51073 -1.3927,3.66418 -1.9995,7.68208 -1.9995,13.23927 0,5.55719 0.6068,9.57509 1.9995,13.23927 1.0997,2.8934 1.9997,5.37323 2,5.51073 3e-4,0.1375 -0.9244,0.25 -2.0548,0.25 -1.5238,0 -2.7505,-1.487 -4.7435,-5.75 z m 189.5306,-0.43767 c 2.144,-5.30799 2.4368,-7.33385 2.0601,-14.25 -0.2856,-5.24458 -1.1801,-9.72244 -2.5593,-12.81233 l -2.1202,-4.75 h 2.3712 c 1.8989,0 2.9227,1.14527 5.1404,5.75 3.8907,8.07831 3.9469,18.28148 0.1459,26.5 -2.1744,4.70151 -3.104,5.75 -5.0984,5.75 h -2.439 z m -156.408,-2.4109 c -0.2852,-0.74325 -0.3623,-5.63798 -0.1712,-10.87717 0.1911,-5.2392 0.074,-9.52546 -0.2608,-9.52503 -0.3345,4.2e-4 -1.657,4.72577 -2.9388,10.50077 -2.2333,10.06152 -2.4398,10.5 -4.945,10.5 -2.4816,0 -2.7323,-0.49508 -4.9366,-9.75 -3.3524,-14.07568 -4.0064,-14.31842 -4.041,-1.5 l -0.03,11.25 h -2.5 -2.5 v -15 -15 h 4.4104 4.4104 l 2.0896,9.07553 c 1.1493,4.99154 2.0896,9.71654 2.0896,10.5 0,0.78346 0.3722,1.42447 0.8271,1.42447 0.455,0 1.3526,-2.8125 1.9949,-6.25 0.6422,-3.4375 1.6411,-7.9375 2.2198,-10 1.0141,-3.61439 1.2132,-3.75 5.5052,-3.75 h 4.453 v 14.38342 14.38343 l -2.5788,0.49297 c -1.6203,0.30974 -2.7716,-0.009 -3.0974,-0.85839 z m 11.6762,-0.40143 c -2.2356,-2.23562 -2.4426,-3.70572 -1.0408,-7.39275 0.7042,-1.85207 2.2331,-2.89301 5.75,-3.9146 3.5886,-1.04243 4.8711,-1.93241 5.1109,-3.54662 0.4703,-3.16586 -2.6966,-4.01674 -4.8862,-1.31279 -1.9544,2.41368 -5.9339,2.93512 -5.9339,0.77754 0,-0.76406 0.7995,-2.37656 1.7767,-3.58333 1.3827,-1.70761 2.8415,-2.19412 6.5791,-2.19412 7.629,0 8.6442,1.53942 8.6442,13.10737 0,9.31313 -0.074,9.63158 -2.25,9.65645 -1.2375,0.0141 -2.5688,-0.44816 -2.9584,-1.02735 -0.4827,-0.71763 -1.1039,-0.65756 -1.95,0.18856 -1.888,1.88803 -6.5993,1.48394 -8.8416,-0.75836 z m 10.1566,-5.47603 c 0.9566,-3.59777 0.1,-4.60515 -2.9288,-3.44352 -4.206,1.61324 -4.2483,7.35425 -0.05,6.73969 1.4537,-0.21278 2.4525,-1.31814 2.9784,-3.29617 z m 21.0827,3.85178 c -1.9783,-4.14858 -2.6518,-4.20828 -4.2393,-0.37575 -0.9738,2.35079 -1.8656,3 -4.1213,3 -1.5833,0 -2.8787,-0.27118 -2.8787,-0.60262 0,-0.33144 1.2375,-2.80644 2.75,-5.5 l 2.75,-4.89738 -2.75,-4.89738 c -1.5125,-2.69356 -2.75,-5.16856 -2.75,-5.5 0,-0.33144 1.2954,-0.60262 2.8787,-0.60262 2.2557,0 3.1475,0.64921 4.1213,3 0.6834,1.65 1.5834,3 2,3 0.4165,0 1.3165,-1.35 2,-3 0.9852,-2.37843 1.8563,-3 4.2046,-3 1.6291,0 2.8016,0.3375 2.6056,0.75 -0.1961,0.4125 -1.4594,2.91055 -2.8075,5.55123 l -2.451,4.80123 2.7241,4.84615 c 1.4983,2.66538 2.7242,5.06487 2.7242,5.33219 0,0.26733 -1.159,0.70759 -2.5755,0.97837 -2.1545,0.41187 -2.8384,-0.0593 -4.1852,-2.88342 z m 57.8596,1.72322 c -1.8373,-1.83737 -2.0989,-3.28299 -2.0989,-11.59897 v -9.5 h 3 3 v 8.89301 c 0,7.29036 0.2931,9.00551 1.6267,9.51725 3.2719,1.25555 4.3733,-1.27107 4.3733,-10.0327 v -8.37756 h 3 3 v 11.02416 11.02416 l -3.75,-0.0833 c -2.0625,-0.0458 -5.168,0.21284 -6.9011,0.57482 -2.4434,0.51034 -3.6223,0.18679 -5.25,-1.44084 z m 20.9011,-9.49198 v -11.60699 h 2.4166 c 1.3292,0 2.623,0.5625 2.875,1.25 0.3667,1 0.7234,1 1.7834,0 1.6329,-1.54049 7.134,-1.64094 8.6176,-0.15736 0.7902,0.79019 1.6578,0.79019 3.1343,0 2.7052,-1.44777 7.475,-1.3907 8.9731,0.10736 0.77,0.77007 1.2,4.71111 1.2,11 v 9.8 h -2.8294 c -2.031,0 -2.8273,-0.49386 -2.8217,-1.75 0.058,-13.15243 -0.3788,-16.25 -2.2899,-16.25 -2.9398,0 -3.5456,1.77431 -3.5526,10.40543 l -0.01,7.90543 -2.75,0.12759 -2.75,0.12759 -0.015,-8.03302 c -0.017,-8.795 -0.7538,-10.91545 -3.6045,-10.37016 -1.6419,0.31406 -1.9168,1.46736 -2.1691,9.09839 -0.2189,6.62152 -0.6231,8.73875 -1.6682,8.73875 -0.7586,0 -2.0911,0.27314 -2.9611,0.60699 -1.3868,0.53201 -1.5822,-0.82679 -1.5822,-11 z m -68,-0.60699 v -11 h 3 3 v 11 11 h -3 -3 z m 11,0 v -11 h 2.5 c 1.375,0 2.5,0.46583 2.5,1.03518 0,0.71358 0.6009,0.71358 1.9342,0 2.806,-1.5017 7.627,-1.26875 9.0426,0.43694 1.0758,1.29616 1.3977,1.29616 2.6939,0 1.7734,-1.77343 7.4585,-1.94289 9.1293,-0.27212 0.77,0.77007 1.2,4.71111 1.2,11 0,9.74533 -0.014,9.8 -2.4611,9.8 -2.4052,0 -2.4676,-0.19851 -2.75,-8.75 -0.2836,-8.58962 -0.3347,-8.75 -2.7889,-8.75 -2.4542,0 -2.5053,0.16038 -2.789,8.75 l -0.2889,8.75 h -2.9611 -2.961 l -0.015,-7.75 c -0.017,-8.51808 -0.7712,-10.62911 -3.6045,-10.08714 -1.6419,0.31406 -1.9168,1.46736 -2.1691,9.09839 l -0.289,8.73875 h -2.9611 -2.961 z m -11,-16.5 c 0,-2.11111 0.4666,-2.5 3,-2.5 2.5333,0 3,0.38889 3,2.5 0,2.11111 -0.4667,2.5 -3,2.5 -2.5334,0 -3,-0.38889 -3,-2.5 z m -26.1878,-14.02111 c -0.3371,-0.33711 2.4158,-9.69527 6.1175,-20.79591 l 6.7304,-20.18298 3.1699,-0.31336 c 1.7435,-0.17235 3.141,0.0526 3.1057,0.5 -0.035,0.44735 -3.0729,9.81336 -6.75,20.81336 -6.2165,18.59642 -6.8638,20.02077 -9.2231,20.29591 -1.3956,0.16275 -2.8133,0.0201 -3.1504,-0.31702 z m 326.1878,-0.30198 c 0,-0.52239 2.9415,-10.0009 6.5367,-21.06335 l 6.5367,-20.11356 h 2.9633 c 1.6298,0 2.9494,0.3375 2.9324,0.75 -0.017,0.4125 -2.8488,9.75 -6.2931,20.75 l -6.2624,20 -3.2068,0.31336 c -1.7638,0.17235 -3.2068,-0.11405 -3.2068,-0.63645 z m 325.0885,-1.36049 c 0.049,-1.27403 2.8612,-10.64142 6.25,-20.81642 l 6.1614,-18.5 3.25,-0.31336 c 1.7875,-0.17235 3.221,0.0526 3.1857,0.5 -0.035,0.44735 -3.0729,9.81336 -6.75,20.81336 -6.4068,19.16551 -6.8005,20.0132 -9.4357,20.31642 -2.3192,0.26685 -2.7361,-0.0465 -2.6614,-2 z m -677.0885,-18.81642 v -20 h 12 12 v 2.95794 2.95793 l -7.75,0.29207 -7.75,0.29206 -0.3048,4.75 -0.3048,4.75 h 7.5548 7.5548 v 2.95619 2.95619 l -7.25,0.29381 -7.25,0.29381 -0.289,8.75 -0.2889,8.75 h -3.9611 -3.961 z m 52.888,18.50036 c -4.0663,-2.20999 -5.398,-6.72432 -5.31,-18.00036 0.1234,-15.82257 4.294,-21.45082 15.0008,-20.244 8.3979,0.94656 11.41,6.15873 11.41,19.744 0,9.11479 -1.3772,14.47933 -4.5256,17.62773 -1.9635,1.96348 -3.371,2.36537 -8.1678,2.33223 -3.1875,-0.022 -6.9708,-0.67884 -8.4074,-1.4596 z m 11.2395,-5.15378 c 1.5155,-1.82579 1.968,-19.72255 0.6202,-24.52993 -0.9731,-3.47055 -4.2698,-4.55915 -6.8194,-2.2518 -1.6898,1.52928 -1.9283,3.15647 -1.9283,13.15588 0,6.27591 0.4658,12.28117 1.0352,13.34501 1.2681,2.36961 5.2284,2.52642 7.0923,0.28084 z m 14.8725,2.27005 v -4.61663 h 4 4 v 4 c 0,3.13766 -0.3773,4.00294 -1.75,4.01365 -0.9625,0.008 -2.7625,0.285 -4,0.61664 -2.0955,0.56157 -2.25,0.28595 -2.25,-4.01366 z m 17.1913,1.89091 c -1.6978,-1.42861 -3.1505,-3.77615 -3.4035,-5.5 -0.4327,-2.948 -0.3558,-3.00754 3.8854,-3.00754 3.4999,0 4.3268,0.34401 4.3268,1.8 0,4.1313 6.0459,5.85118 7.9648,2.26574 1.3342,-2.493 1.3342,-9.63848 0,-12.13148 -1.2356,-2.30864 -5.2118,-2.54447 -7.322,-0.43426 -0.825,0.825 -3.0233,1.5 -4.8852,1.5 h -3.3852 l 0.3458,-6.25 c 0.1902,-3.4375 0.584,-8.1625 0.8751,-10.5 l 0.5292,-4.25 h 11.0052 11.0051 l -0.3164,2.75 c -0.3115,2.70694 -0.4378,2.75457 -8.0664,3.04206 -5.6445,0.21272 -7.75,0.65421 -7.75,1.625 0,0.73312 -0.3009,2.85169 -0.6687,4.70794 -0.5594,2.82383 -0.437,3.19338 0.75,2.26289 4.4397,-3.48033 12.9857,-2.1158 15.3156,2.4454 3.5319,6.91438 2.6675,15.97804 -1.8995,19.91671 -2.1157,1.82461 -3.8128,2.25 -8.9765,2.25 -5.3279,0 -6.8511,-0.40693 -9.3296,-2.49246 z m 230.4753,1.82579 c -0.3666,-0.36666 -0.6666,-9.36666 -0.6666,-20 v -19.33333 h 12 12 v 2.86408 c 0,2.64918 -0.3481,2.91179 -4.6396,3.5 -2.5518,0.34975 -5.9268,0.63592 -7.5,0.63592 -2.7235,0 -2.8604,0.21546 -2.8604,4.5 v 4.5 h 7 7 v 3 3 h -7 -7 v 9 9 h -3.8334 c -2.1083,0 -4.1333,-0.3 -4.5,-0.66667 z m 47.3334,-1.73835 c 0,-4.78369 2.1226,-8.16932 9.5221,-15.18765 6.595,-6.25525 7.4779,-7.51606 7.4779,-10.67857 0,-3.60596 -2.0497,-6.72876 -4.4165,-6.72876 -1.9265,0 -4.5835,3.37886 -4.5835,5.82874 0,1.89897 -0.5511,2.17126 -4.3947,2.17126 h -4.3947 l 0.7794,-3.25 c 1.3069,-5.44917 2.0356,-6.53427 5.4885,-8.17276 6.1816,-2.93337 16.0577,-1.18085 18.441,3.27236 0.5943,1.1104 1.0805,4.38951 1.0805,7.28691 0,5.25478 -0.019,5.2862 -7.5788,12.53378 -4.1683,3.99619 -7.2918,7.73018 -6.941,8.29775 0.3508,0.56758 4.0161,1.03196 8.1452,1.03196 h 7.5074 l -0.3164,2.75 -0.3164,2.75 -12.75,0.27988 -12.75,0.27987 z m 31.7245,1.79626 c -0.3985,-0.39852 -0.7245,-2.44957 -0.7245,-4.55791 0,-3.80555 0.029,-3.83333 4,-3.83333 h 4 v 4 c 0,2.52605 -0.4606,4.00503 -1.25,4.01365 -0.6875,0.008 -2.1615,0.25857 -3.2755,0.55791 -1.1139,0.29934 -2.3514,0.21819 -2.75,-0.18032 z m 17.3855,-0.78675 c -6.4869,-3.59543 -6.8682,-13.63462 -0.7132,-18.77982 1.1567,-0.96697 1.5522,-1.7731 0.8789,-1.7914 -0.6734,-0.0183 -1.9507,-1.43794 -2.8385,-3.15475 -2.0792,-4.02061 -1.2178,-8.79661 2.1586,-11.96859 2.1588,-2.02806 3.5789,-2.40993 8.962,-2.40993 5.6576,0 6.7171,0.32037 9.1694,2.77273 3.6201,3.62008 3.971,10.93371 0.6535,13.62009 l -2.1193,1.71611 2.8693,3.21131 c 4.4779,5.01171 3.3183,13.86195 -2.1895,16.71014 -3.5163,1.81835 -13.604,1.86277 -16.8312,0.0741 z m 11.9675,-5.19794 c 1.7218,-2.07464 1.6974,-7.76793 -0.042,-9.86417 -0.8586,-1.03458 -2.509,-1.53285 -4.45,-1.34345 -2.6333,0.25698 -3.2184,0.84028 -3.9948,3.98286 -0.7138,2.8886 -0.5472,4.23508 0.773,6.25 1.9236,2.93573 5.6916,3.41186 7.7142,0.97476 z m 0.071,-19.83281 c 1.3611,-2.9871 0.4361,-7.13549 -1.7806,-7.98611 -4.4036,-1.68984 -7.7303,3.12644 -5.5161,7.98611 1.511,3.31628 5.7857,3.31628 7.2967,0 z m 215.8516,6.42626 v -20 h 11.8268 11.8268 l -0.4342,2.95836 c -0.4297,2.92785 -0.5079,2.96136 -7.5768,3.25 l -7.1426,0.29164 -0.3048,4.75 -0.3048,4.75 h 7.0548 7.0548 v 3 3 h -7 -7 v 8.39301 c 0,8.97907 -0.3649,9.60699 -5.5818,9.60699 h -2.4182 z m 52.4653,19.04848 c -2.8293,-1.14682 -4.3464,-3.2038 -5.0844,-6.89379 -0.6217,-3.10881 -0.5741,-3.15469 3.2748,-3.15469 3.4215,0 4.0462,0.37201 5.0382,3 2.3531,6.23424 9.3061,2.49856 9.3061,-5 0,-6.50745 -5.6233,-10.56871 -9,-6.5 -0.6847,0.825 -2.8289,1.5 -4.7649,1.5 h -3.52 l 0.6424,-6.14669 c 0.3534,-3.38068 0.6425,-8.10568 0.6425,-10.5 v -4.35331 h 11 11 v 3 3 h -8 -8 v 4.06739 c 0,3.79174 0.1525,4.01241 2.25,3.2561 4.6163,-1.6645 9.6699,-0.85811 12.5269,1.9989 2.4838,2.48378 2.7231,3.38732 2.7231,10.28237 0,7.2736 -0.1235,7.66958 -3.2658,10.47727 -2.8307,2.52924 -4.0297,2.90953 -9,2.85458 -3.1538,-0.0349 -6.6498,-0.43452 -7.7689,-0.88813 z m 26.5347,-3.54848 v -4.62073 l 3.75,0.31036 c 3.6566,0.30264 3.75,0.40999 3.75,4.31037 0,3.90038 -0.093,4.00773 -3.75,4.31037 l -3.75,0.31036 z m 18.1168,2.86931 c -3.7389,-2.61889 -5.119,-7.38277 -5.0949,-17.58719 0.026,-10.99469 2.0768,-16.74755 6.8498,-19.2158 6.1112,-3.16023 15.6917,-1.01461 17.9897,4.02892 1.7434,3.82629 1.427,4.40476 -2.4094,4.40476 -2.619,0 -4.1592,-0.71062 -5.8825,-2.71405 -2.0481,-2.38112 -2.6382,-2.57571 -4.8098,-1.58626 -2.3549,1.07297 -3.7597,4.57262 -3.7597,9.36601 0,1.66186 0.233,1.69415 2.75,0.38116 3.6468,-1.90235 8.2635,-1.82611 11.1331,0.18383 6.6984,4.69172 6.5804,18.28664 -0.1945,22.41759 -4.0702,2.48176 -13.2334,2.65927 -16.5718,0.32103 z m 11.6832,-4.56931 c 0.66,-0.66 1.2,-3.495 1.2,-6.3 0,-5.5039 -1.1977,-7.5 -4.5,-7.5 -3.3024,0 -4.5,1.9961 -4.5,7.5 0,5.5039 1.1976,7.5 4.5,7.5 1.155,0 2.64,-0.54 3.3,-1.2 z M 1227.416,372.16876 c -35.4802,-2.61151 -66.5716,-17.01109 -92.5706,-42.87296 -26.493,-26.35317 -41.5952,-59.63079 -43.7983,-96.50955 -2.5938,-43.41815 11.7529,-81.97567 42.0828,-113.10039 20.9193,-21.467383 43.3119,-34.103543 72.7861,-41.073133 12.7849,-3.02318 35.8308,-4.16024 50.0959,-2.47169 39.8424,4.71612 76.7061,26.251803 101.3756,59.223293 17.2947,23.11484 27.8397,52.86582 29.2442,82.50728 2.7394,57.81253 -30.0753,112.94755 -83.0861,139.60084 -22.3777,11.25133 -50.1349,16.60965 -76.1296,14.69631 z m 31.5,-9.33708 c 34.3485,-5.21656 66.4284,-23.75324 88.2494,-50.99293 9.6888,-12.09474 15.2558,-21.4806 20.8381,-35.13269 12.8519,-31.43035 13.8137,-66.81511 2.6753,-98.41981 -20.9045,-59.3154 -76.7453,-97.422303 -138.7628,-94.694553 -64.1831,2.82299 -116.5089,47.985633 -130.6297,112.747133 -2.5502,11.696 -2.5857,40.7053 -0.065,53.21732 3.8007,18.86624 12.3347,39.12266 23.0107,54.61846 7.0047,10.167 21.213,24.86722 31.6268,32.72167 10.4769,7.90207 31.4366,18.45397 43.5573,21.92841 18.6817,5.35518 40.8103,6.84542 59.5,4.00699 z m -39.3653,-5.64581 c -18.3762,-2.68343 -38.3874,-10.48416 -54.4996,-21.24486 -29.0849,-19.42472 -49.8411,-50.13484 -57.2607,-84.72114 -2.9268,-13.64353 -3.1942,-39.78744 -0.5438,-53.17464 5.0185,-25.34877 16.9351,-48.43264 34.6018,-67.02789 24.9624,-26.27446 55.015,-39.928613 91.1454,-41.411213 28.6704,-1.17649 54.4481,6.04713 79.0112,22.141073 19.4818,12.76467 35.5354,30.97722 45.8701,52.03905 10.4334,21.26299 14.1541,37.12258 14.1933,60.5 0.038,22.77196 -3.6378,38.21714 -14.1608,59.5 -19.3146,39.06365 -55.9634,65.97215 -99.4618,73.02737 -9.7099,1.5749 -29.3708,1.76306 -38.8951,0.37225 z m 49.3653,-8.70193 c 24.903,-6.59621 43.4929,-17.40171 61.3578,-35.66474 25.4715,-26.03908 38.4413,-62.19841 35.5217,-99.03295 -4.4266,-55.84588 -43.3092,-101.46094 -98.0829,-115.065783 -13.8761,-3.44659 -35.1041,-4.32839 -49.0335,-2.03683 -40.4421,6.653263 -74.4363,31.297383 -93.0427,67.451563 -9.3448,18.15774 -13.4814,33.69786 -14.4143,54.15105 -1.5817,34.67611 11.1168,68.67643 34.9671,93.62425 19.541,20.44022 41.7011,32.75274 69.2268,38.46343 7.2345,1.50092 12.2367,1.79746 25.5,1.51164 14.5187,-0.31286 17.8808,-0.72132 28,-3.40163 z m -51.5,-3.72345 c -10.3637,-1.90765 -23.9316,-6.61834 -33.4418,-11.61074 -4.157,-2.18224 -6.6582,-3.67051 -5.5582,-3.30727 1.1,0.36324 6.95,1.54782 13,2.63239 18.7116,3.35441 37.8037,1.6875 60.5,-5.28216 5.225,-1.60452 12.65,-3.86178 16.5,-5.01613 10.3905,-3.11543 25.4891,-11.3661 35.2512,-19.26314 8.4101,-6.80337 8.5704,-6.88169 6.2515,-3.05479 -10.2006,16.83412 -30.6393,35.33592 -47.6261,43.11271 -5.3939,2.4694 -6.9941,2.69164 -21.3537,2.96557 -10.5653,0.20155 -18.0779,-0.17418 -23.5229,-1.17644 z m 71.5,-12.21153 c 15.8509,-13.51223 27.0996,-28.90967 34.9709,-47.86889 1.8025,-4.3416 4.968,-11.26882 7.0344,-15.39382 5.0151,-10.0111 8.6894,-21.98048 10.1767,-33.15153 1.0735,-8.06245 1.3378,-8.81989 2.1846,-6.26034 0.5298,1.60153 0.974,11.68687 0.9872,22.41187 0.022,17.94254 -0.1854,20.27487 -2.5951,29.20163 -1.4405,5.3359 -3.3731,11.29088 -4.2949,13.23329 -2.4772,5.22035 -17.8004,21.06 -26.9403,27.84828 -6.9796,5.18385 -24.0926,14.76086 -26.2535,14.69241 -0.4235,-0.0134 1.705,-2.13422 4.73,-4.7129 z m -95.4153,-5.36933 c -8.2257,-1.19972 -19.6223,-4.43483 -28.1948,-8.00356 -6.033,-2.51157 -8.4866,-4.31542 -14.6631,-10.7803 -4.0797,-4.27021 -9.3809,-10.65426 -11.7803,-14.18677 -4.3063,-6.33986 -13.9465,-24.40477 -13.9465,-26.13455 0,-0.49013 3.8929,3.19964 8.6509,8.1995 10.8987,11.45265 21.0935,19.15453 34.4056,25.99253 5.7438,2.95035 12.8319,6.89231 15.7514,8.75991 10.6945,6.84121 24.695,11.99904 39.1921,14.4385 l 7.5,1.26204 -4.5,0.70554 c -6.0992,0.95625 -25.1438,0.8077 -32.4153,-0.25284 z m -40.6164,-40.81913 c -13.7539,-10.33181 -31.2156,-31.35698 -33.9861,-40.92182 -1.74,-6.00689 -2.3651,-27.78725 -1.0745,-37.43322 1.2025,-8.98657 4.8997,-23.12644 7.5713,-28.95643 l 1.4952,-3.26278 -0.5992,3.39872 c -0.3296,1.8693 -0.6121,8.8443 -0.6277,15.5 -0.034,14.3819 1.9249,25.70782 6.8055,39.34897 1.919,5.36377 4.8012,13.643 6.4047,18.39829 4.396,13.03614 10.7143,25.00188 18.7985,35.60075 1.3647,1.7893 2.3154,3.24894 2.1127,3.24366 -0.2028,-0.005 -3.308,-2.21755 -6.9004,-4.91614 z m 196.7979,-16.07425 c 0.4036,-3.025 0.7041,-11.8 0.6678,-19.5 -0.075,-15.97031 -1.8206,-26.0551 -6.923,-40 -1.8111,-4.95 -4.3139,-12.15 -5.5616,-16 -4.2178,-13.01468 -8.9915,-22.08014 -18.6713,-35.45737 -2.2634,-3.12804 -0.8531,-2.34039 7.3119,4.08351 11.3776,8.95161 24.7037,24.80221 30.7852,36.61749 1.011,1.96421 1.9926,7.38292 2.4886,13.73774 1.4977,19.19082 -1.2877,38.72181 -7.784,54.57981 l -3.0473,7.43882 z M 1133.1638,215.1591 c -4.5671,-24.17138 -0.2777,-54.20463 9.6126,-67.30423 5.5666,-7.37284 15.6136,-17.26658 23.6327,-23.27198 6.0157,-4.5051 21.1846,-13.29664 22.942,-13.29664 0.3838,0 -3.1361,3.62905 -7.8219,8.06456 -13.1185,12.41782 -22.3142,25.91802 -28.0614,41.19691 -1.3988,3.7188 -4.5165,10.6938 -6.9283,15.5 -6.6665,13.28504 -10.6189,27.50868 -11.8759,42.73853 -0.1734,2.10025 -0.6232,1.0124 -1.4998,-3.62715 z m 216.3153,-36.91843 c -8.8657,-11.6255 -26.4974,-25.71526 -43.0631,-34.41234 -3.85,-2.02127 -10.375,-5.67691 -14.5,-8.12364 -12.763,-7.57033 -33.059,-14.11362 -45,-14.50766 l -3.5,-0.1155 3.5,-0.83247 c 11.7378,-2.79182 31.8937,-1.95492 47.1981,1.95974 10.1686,2.60101 22.0875,7.43079 26.3378,10.67262 5.1322,3.91458 16.6055,17.87893 21.9784,26.75053 3.9679,6.5516 12.0353,23.6543 11.1578,23.6543 -0.1436,0 -1.9927,-2.27051 -4.109,-5.04558 z M 1165.88,147.78625 c 5.0068,-8.4544 11.1453,-16.27146 18.2019,-23.17906 8.0151,-7.84587 24.9008,-19.62541 30.6854,-21.40616 2.0066,-0.61775 10.4568,-1.35455 18.7781,-1.63734 16.9439,-0.57581 28.4225,0.8643 41.8651,5.25241 7.0726,2.30874 22.942,9.42174 22.2819,9.98724 -0.1522,0.13033 -4.3266,-0.60014 -9.2766,-1.62326 -19.2688,-3.9827 -44.5315,-2.0208 -64.6884,5.0237 -4.5714,1.59762 -11.4616,3.83167 -15.3116,4.96457 -13.5207,3.97855 -29.7982,13.15891 -40.9523,23.09661 l -3.9523,3.52129 z m 380.5358,223.82436 c -7.7396,-0.96995 -23.5911,-4.76561 -31.3805,-7.51411 -52.536,-18.53727 -91.7271,-67.48362 -98.2661,-122.72596 -1.5149,-12.79806 -0.5189,-36.17186 2.0359,-47.7786 13.0345,-59.21682 57.636,-103.551353 116.6107,-115.912853 12.6178,-2.64477 44.2856,-2.69372 56.3747,-0.0871 20.6209,4.44614 37.5274,11.40568 53.3681,21.96892 32.1427,21.433983 53.6293,52.387213 63.5214,91.507943 2.5174,9.95558 2.711,12.21018 2.7229,31.71742 0.014,23.35881 -0.9485,29.99329 -6.9865,48.14427 -13.4705,40.49489 -44.0523,73.27766 -84.5319,90.61573 -17.5419,7.51346 -34.9,10.80488 -55.8497,10.59017 -8.0405,-0.0824 -15.969,-0.31902 -17.619,-0.52581 z m 37.1826,-8.87445 c 37.512,-5.57 69.6392,-24.96532 93.4013,-56.38677 6.5761,-8.69594 18.2596,-32.37741 21.3616,-43.29839 7.7343,-27.23053 7.1601,-56.83646 -1.6129,-83.1487 -19.8008,-59.38671 -76.5943,-98.932063 -138.3326,-96.321093 -35.9179,1.519 -66.9614,15.16261 -92.4521,40.632743 -20.4113,20.39484 -33.0776,43.76955 -39.2235,72.38389 -3.1492,14.66254 -3.124,39.82576 0.055,54.64508 5.8475,27.26055 18.9442,51.66644 38.1209,71.03827 31.5938,31.91534 75.4703,46.87138 118.6827,40.45497 z m -39.1826,-5.85599 c -30.5079,-5.12247 -55.7925,-18.47939 -76.8304,-40.58654 -51.1552,-53.7554 -49.6547,-136.74968 3.4167,-188.97206 18.9273,-18.62455 45.8695,-32.238363 72.4161,-36.591643 12.0728,-1.97978 34.93,-1.45601 46.4976,1.0655 55.7476,12.151903 96.4586,54.509673 106.0502,110.340193 10.7325,62.47227 -25.7268,125.16717 -85.9791,147.84807 -13.9015,5.23298 -25.6298,7.41897 -42.0711,7.84144 -10.1447,0.26068 -18.2641,-0.0658 -23.5,-0.94496 z m 39.119,-6.10857 c 47.2847,-8.06438 86.7636,-41.68239 101.802,-86.68901 4.7786,-14.30122 6.0823,-23.11778 6.0326,-40.79634 -0.053,-18.85916 -1.5533,-27.85108 -7.1748,-43 -4.4872,-12.09189 -6.6582,-16.34476 -14.1909,-27.79891 -14.8831,-22.63108 -38.5285,-41.07686 -64.0879,-49.99487 -16.277,-5.679253 -22.8403,-6.709473 -42.5,-6.671003 -16.0624,0.0314 -19.1303,0.31927 -28.5,2.67401 -49.5549,12.453813 -86.6265,51.433023 -96.7197,101.696733 -2.3324,11.61536 -2.3086,35.38425 0.048,47.30385 3.5577,17.99892 12.2516,37.87058 22.8772,52.29019 11.8971,16.14533 32.3045,32.83314 50.029,40.91045 22.4688,10.23937 49.4232,13.99102 72.385,10.0749 z m -40.119,-6.02586 c -8.0342,-1.50302 -13.4906,-3.06818 -23.2741,-6.67621 -4.6539,-1.71628 -5.8442,-2.78988 -10.1221,-9.12939 -9.8595,-14.61118 -18.0137,-33.72625 -21.6443,-50.73876 -1.348,-6.31628 -3.4495,-24.91513 -2.8152,-24.91513 0.115,0 1.3253,2.43827 2.6897,5.41837 5.0884,11.11453 8.8515,15.74765 35.666,43.91196 15.4107,16.18651 39.6867,31.25141 60.305,37.42339 l 9.0934,2.72206 -5.4492,1.30799 c -8.564,2.05565 -34.9305,2.45647 -44.4492,0.67572 z m 54.6003,-7.01643 c -16.4947,-3.55301 -33.5629,-10.82056 -47.77,-20.34008 -9.0102,-6.03736 -22.4514,-17.83846 -18.8303,-16.53269 11.325,4.08385 19.1346,5.61355 33,6.46383 8.25,0.50592 17.475,1.18027 20.5,1.49854 8.2591,0.869 26.4784,-1.19817 39.1977,-4.44736 13.527,-3.45554 25.9333,-8.55284 36.9887,-15.19734 4.4779,-2.69129 8.2898,-4.7451 8.4709,-4.56401 0.6622,0.66227 -10.3308,15.77281 -16.423,22.57423 -8.2412,9.20062 -23.4337,20.54152 -35.2423,26.30752 -11.9768,5.8482 -12.1964,5.89497 -19.8917,4.23736 z M 1495.0883,324.6637 c -16.2727,-11.13296 -31.5022,-28.72027 -39.9663,-46.15411 l -4.5039,-9.27666 1.6336,-9.83667 c 3.9494,-23.78009 15.8112,-49.03991 30.5754,-65.11001 l 5.053,-5.5 -1.4996,3.75955 c -4.1056,10.29304 -5.458,19.95042 -6.0743,43.3757 -0.6602,25.09207 0.068,34.04619 4.0369,49.65385 3.1736,12.47963 7.493,23.30712 13.947,34.9609 2.9698,5.3625 5.3134,9.75 5.2081,9.75 -0.1054,0 -3.8898,-2.53015 -8.4099,-5.62255 z m 103.8275,-25.1546 c 4.125,-2.06781 9.75,-5.30446 12.5,-7.19255 7.7171,-5.29839 37.5566,-34.07524 43.84,-42.27868 10.9478,-14.29337 19.0253,-30.72642 23.7177,-48.25162 l 2.6775,-10 1.1023,4 c 5.1723,18.76918 3.9037,45.35046 -3.1732,66.48603 l -3.1762,9.48603 -7.9941,5.71737 c -20.2147,14.45761 -44.376,23.21948 -69.494,25.20132 l -7.5,0.59176 z m 42.5831,-43.72285 c 3.8535,-10.33817 5.6221,-21.0647 6.5129,-39.5 1.0898,-22.55271 0.091,-37.05633 -3.6361,-52.78191 -2.8672,-12.09824 -9.7637,-29.46225 -15.3611,-38.67565 -2.186,-3.59834 -3.6232,-6.54244 -3.1936,-6.54244 1.5949,0 15.2418,10.20596 21.5998,16.15359 10.7918,10.09516 24.2517,29.28464 28.4165,40.51285 1.6297,4.39349 1.6702,5.56191 0.4449,12.83356 -2.9412,17.45362 -11.1257,37.82386 -21.1893,52.73749 -5.2936,7.84479 -14.8128,18.53236 -13.594,15.26251 z m -196.3592,-4.5 c -4.9742,-22.65341 -4.0329,-44.09411 2.8687,-65.34625 3.4862,-10.73479 4.2093,-11.67175 14.0966,-18.26554 19.789,-13.19713 41.8742,-20.81993 66.3108,-22.88739 l 8,-0.67684 -8.5884,4.37595 c -9.9304,5.05974 -13.5465,7.74928 -27.9116,20.75922 -16.1828,14.65617 -23.5167,22.64037 -30.992,33.74033 -10.1212,15.02856 -15.9356,28.36844 -21.2708,48.80052 l -1.3056,5 z m 195.9554,-59.91536 c -2.2893,-6.56719 -9.7704,-17.69173 -17.5243,-26.05913 -4.4853,-4.84009 -12.333,-13.32896 -17.4394,-18.86415 -17.6974,-19.18357 -39.0969,-32.50782 -63.5788,-39.58691 l -7.8633,-2.2737 4.3633,-1.22131 c 7.6666,-2.14596 34.0429,-2.53071 44.8241,-0.65383 10.8881,1.89548 26.6228,6.91166 29.4396,9.38523 3.8261,3.35996 13.6945,19.85857 18.0499,30.17699 5.3339,12.63669 9.0177,26.81489 10.6051,40.81692 1.2141,10.70862 0.9245,13.44526 -0.8762,8.27989 z m -179.5245,-33.90927 c 12.7484,-20.05084 33.0909,-37.47096 53.8478,-46.11207 l 7.1529,-2.97778 8.9222,1.84461 c 17.3431,3.58556 31.3912,9.49731 46.3591,19.50888 8.9539,5.98895 21.5747,16.38284 20.8151,17.14237 -0.1868,0.18684 -4.4979,-0.99749 -9.5801,-2.63184 -14.2423,-4.58008 -46.4813,-7.04756 -65.0448,-4.97835 -19.6643,2.19192 -42.6741,9.68544 -57.1556,18.61365 -4.1093,2.5335 -7.8547,4.8432 -8.3232,5.13267 -0.4685,0.28947 0.8845,-2.20449 3.0066,-5.54214 z m 403.8451,213.26932 c -30.5106,-5.1553 -57.54,-19.29342 -80.0398,-41.86596 -22.4127,-22.48509 -35.0276,-45.80507 -41.6069,-76.91437 -2.8328,-13.39433 -3.0854,-39.58592 -0.5152,-53.40013 4.1075,-22.07562 13.3083,-44.08118 25.8105,-61.73035 22.0891,-31.18286 57.1861,-53.009493 95.9027,-59.641323 10.6008,-1.81583 14.9721,-2.0524 29.4487,-1.59369 14.7005,0.46581 18.6705,0.96567 29.3501,3.69551 20.3571,5.20354 38.3985,13.60322 53.1499,24.745373 29.4023,22.20845 49.2529,53.94394 57.0833,91.26025 2.9245,13.93666 3.1972,39.84636 0.5685,54 -10.4834,56.444 -52.3251,103.05389 -105.9587,118.03351 -17.774,4.96421 -45.2304,6.44631 -63.1931,3.41118 z m 43.9591,-7.95753 c 24.8505,-3.74549 46.2928,-13.29775 66.7035,-29.71553 41.6679,-33.51641 60.8298,-89.71899 48.3067,-141.6851 -6.2289,-25.84754 -18.736,-48.23276 -37.4693,-67.06259 -18.5683,-18.66399 -37.9534,-29.844303 -63.3444,-36.533753 -67.2368,-17.71401 -138.1585,18.634833 -164.021,84.064173 -28.1481,71.21166 5.2997,150.94212 76.1162,181.4402 22.7663,9.80464 49.1198,13.1986 73.7083,9.4926 z m -40.4591,-5.90979 c -21.294,-3.83714 -36.2658,-9.82283 -53.6434,-21.44649 -37.4484,-25.04885 -59.3566,-66.02033 -59.3566,-111.00543 0,-36.73964 12.6336,-68.31082 37.6965,-94.20294 19.0129,-19.64192 42.37,-32.601293 69.3883,-38.499213 11.7523,-2.56545 33.6376,-3.02307 46.0284,-0.96247 57.5629,9.572713 101.7879,53.788853 111.4117,111.389353 2.4992,14.95786 1.643,38.75463 -1.9012,52.84029 -12.7869,50.81955 -51.167,88.75531 -101.6237,100.44714 -11.1578,2.58547 -37.2918,3.36936 -48,1.43976 z m 39.6716,-6.07294 c 33.0731,-5.36405 63.2493,-24.09789 82.9628,-51.50443 15.893,-22.0952 24.3656,-48.34866 24.3656,-75.5 0,-87.53583 -84.2855,-149.216753 -166.6715,-121.97176 -38.763,12.8189 -69.2937,43.98132 -81.7636,83.45548 -4.6073,14.58481 -5.8411,24.66405 -5.2657,43.01628 0.575,18.33737 2.1622,26.4827 8.2318,42.24613 15.9333,41.38008 54.6017,72.75382 98.8256,80.1824 11.0109,1.84958 28.1747,1.88272 39.315,0.0759 z m -33.6716,-5.07762 c -20.742,-3.55087 -20.7057,-3.52992 -28.3505,-16.38164 -11.9371,-20.06763 -17.6621,-43.14527 -17.6246,-71.04517 l 0.022,-16.5 5.7766,11 c 3.1772,6.05 7.0595,13.025 8.6272,15.5 19.1284,30.19737 47.7749,53.91558 79.641,65.93967 l 10.1449,3.82803 -5.4543,2.04074 c -9.952,3.72353 -19.8234,5.31431 -35.2825,5.68585 -8.25,0.19828 -16.125,0.16791 -17.5,-0.0675 z m -42,-13.45433 c -5.225,-2.727 -12.4311,-7.1675 -16.0134,-9.86778 -8.499,-6.4063 -22.4076,-20.92672 -27.7711,-28.9928 -3.995,-6.00799 -4.2109,-6.69227 -3.628,-11.5 1.4491,-11.95303 6.9956,-29.79392 12.9554,-41.67277 5.5729,-11.10764 15.2896,-24.68831 24.7272,-34.56021 4.9576,-5.18564 9.1668,-9.27532 9.354,-9.08817 0.1871,0.18715 -0.5529,3.46079 -1.6445,7.27476 -1.0916,3.81397 -3.1979,12.55949 -4.6806,19.43449 -2.4534,11.37558 -2.7005,14.47898 -2.7474,34.5 -0.046,19.49648 0.2129,23.18126 2.2726,32.3805 3.1117,13.89792 7.3274,25.66234 13.2633,37.01328 2.7019,5.16658 4.9125,9.55408 4.9125,9.75 0,0.86654 -2.0896,-0.0208 -11,-4.6713 z m 101.0806,-0.59842 c -21.8278,-6.37046 -37.9482,-15.60367 -57.7369,-33.06971 -7.6162,-6.72229 -17.92,-18.06141 -17.1301,-18.85131 0.2609,-0.26092 2.3164,0.17551 4.5678,0.96984 14.0301,4.9501 40.2189,9.52227 54.7448,9.5576 26.0939,0.0635 55.8242,-8.50275 76.1438,-21.93943 4.8565,-3.21141 8.9396,-5.73732 9.0735,-5.61312 0.5522,0.51197 -4.9457,13.26918 -8.7948,20.4072 -10.4147,19.31406 -27.8198,36.88983 -47.9487,48.41873 l -4.5,2.5774 z m -25.5806,-48.86565 c 1.1,-0.87558 5.9417,-3.93566 10.7595,-6.80019 40.2058,-23.90561 66.8065,-55.84655 76.7917,-92.20822 3.568,-12.99272 3.2245,-12.94907 7.2212,-0.91773 1.9986,6.01659 4.33,14.93086 5.1807,19.80949 2.7098,15.53873 1.3455,45.53119 -2.2692,49.88659 -2.4818,2.9904 -17.3894,12.96135 -25.7818,17.24413 -17.7012,9.03324 -35.8237,13.37232 -58.9021,14.10299 -13.8433,0.43828 -14.8458,0.35214 -13,-1.11706 z m -131.446,-11.99693 c -6.4514,-13.70273 -10.8623,-38.66561 -9.5231,-53.89391 0.6575,-7.47634 2.1992,-17.85286 3.1108,-20.93835 1.3222,-4.47495 24.1603,-18.68312 39.0238,-24.27775 16.0196,-6.02976 40.1204,-9.83051 54.8424,-8.64877 l 6.8159,0.54712 -4.9119,2.47405 c -8.8365,4.45078 -29.7499,18.89235 -37.4815,25.88248 -17.0159,15.38419 -29.5856,32.34792 -38.0883,51.40287 -4.2853,9.60347 -8.917,24.23574 -10.1105,31.94078 -0.3235,2.08837 -0.929,1.34932 -3.6776,-4.48852 z m 170.0241,-31.90986 c 6.5409,-23.14838 8.2291,-36.02962 7.6146,-58.10162 -0.3914,-14.06048 -1.0883,-21.59975 -2.6808,-29 -2.5002,-11.61828 -8.4926,-27.51886 -13.4733,-35.75109 l -3.4796,-5.75109 3.7183,1.5536 c 18.3702,7.67558 37.9023,24.15991 49.8952,42.10962 l 6.1208,9.16103 -1.4256,7.54986 c -4.7462,25.13631 -17.8234,49.37168 -38.2884,70.95832 -2.5186,2.65664 -6.1959,6.12575 -8.1716,7.70914 l -3.5923,2.87888 z m -2.2576,-40.60137 c -3.5256,-7.97697 -13.667,-24.8873 -20.0935,-33.50506 -17.9803,-24.11113 -45.1762,-43.95852 -71.4654,-52.15507 l -8.6481,-2.69635 4.4432,-1.89389 c 11.3035,-4.81799 20.4853,-6.24681 39.9433,-6.21572 15.8847,0.0254 19.8045,0.35418 27.7276,2.32577 l 9.2276,2.29619 4.4762,7.18179 c 13.105,21.02614 18.9022,43.30349 18.8607,72.47761 -0.013,8.97353 -0.4324,16.72476 -0.9326,17.22494 -0.5459,0.54589 -1.9605,-1.46885 -3.539,-5.04021 z m -168.7579,-19.18415 c 4.2044,-10.71751 6.1426,-14.43419 12.5319,-24.03163 10.4148,-15.64427 25.7272,-29.74068 42.1538,-38.80631 l 4.2484,-2.34461 7.7516,1.78237 c 21.4644,4.9354 42.9144,16.92444 61.2839,34.25328 8.0777,7.62008 17.2645,19.04516 14.4331,17.94955 -4.2497,-1.6444 -18.6196,-5.56435 -28.5326,-7.78339 -9.0308,-2.02154 -13.1202,-2.33536 -30.4327,-2.33536 -15.5165,0 -21.9055,0.40629 -28.5,1.81237 -17.9738,3.83238 -36.4961,11.25991 -49,19.6492 -3.025,2.02958 -6.0677,4.02325 -6.7615,4.43038 -0.8023,0.47079 -0.5023,-1.19492 0.8241,-4.57585 z"
         id="path2" />
    </g>
  </g>
</svg>
