<svg width="100" height="100" viewBox="0 0 100 100" xmlns="http://www.w3.org/2000/svg">
  <circle cx="50" cy="50" r="48" fill="black" stroke="white" stroke-width="2"/>
  <g fill="black" stroke="white" stroke-width="1.5">
    <path d="M50 10 A40 40 0 0 1 84.6 30 L58 45.4 A10 10 0 0 0 50 40 Z" transform="rotate(0 50 50)"/>
    <path d="M50 10 A40 40 0 0 1 84.6 30 L58 45.4 A10 10 0 0 0 50 40 Z" transform="rotate(60 50 50)"/>
    <path d="M50 10 A40 40 0 0 1 84.6 30 L58 45.4 A10 10 0 0 0 50 40 Z" transform="rotate(120 50 50)"/>
    <path d="M50 10 A40 40 0 0 1 84.6 30 L58 45.4 A10 10 0 0 0 50 40 Z" transform="rotate(180 50 50)"/>
    <path d="M50 10 A40 40 0 0 1 84.6 30 L58 45.4 A10 10 0 0 0 50 40 Z" transform="rotate(240 50 50)"/>
    <path d="M50 10 A40 40 0 0 1 84.6 30 L58 45.4 A10 10 0 0 0 50 40 Z" transform="rotate(300 50 50)"/>
  </g>
</svg>